<svg xmlns="http://www.w3.org/2000/svg" width="20" height="16" viewBox="0 0 20 16"><path d="M2.727,0H17.273A2.7,2.7,0,0,1,20,2.667h0a.9.9,0,0,1-.909.889H15.455A4.5,4.5,0,0,0,10.909,8a4.5,4.5,0,0,0,4.545,4.444h3.636a.9.9,0,0,1,.909.889h0A2.7,2.7,0,0,1,17.273,16H2.727A2.7,2.7,0,0,1,0,13.333V2.667A2.7,2.7,0,0,1,2.727,0Z" fill="#fff"/><path d="M5.956,5.333H2.727A2.7,2.7,0,0,1,0,2.667,2.7,2.7,0,0,1,2.727,0H5.956a1,1,0,0,1,.7.285l.316.31a1,1,0,0,1,.3.715V4.024a1,1,0,0,1-.3.715l-.316.31A1,1,0,0,1,5.956,5.333ZM2.727,1.778a.889.889,0,1,0,.909.889A.9.9,0,0,0,2.727,1.778Z" transform="translate(12.728 5.333)" fill="#fff"/></svg>