<svg xmlns="http://www.w3.org/2000/svg" width="20" height="20" viewBox="0 0 20 20"><g transform="translate(-2 -2)"><g transform="translate(2 2)"><path d="M18.366,12.551a1.087,1.087,0,0,1-.235-.589L17.65,5.99C17.394,2.826,14.349.2,10.46.011c-4.232-.2-7.819,2.412-8.1,5.81l-.5,6.141a1.087,1.087,0,0,1-.235.589L.242,14.329c-.65.833.087,1.921,1.3,1.921H18.464c1.208,0,1.944-1.089,1.295-1.921Z" fill="#7853ff"/><path d="M5.437,1.268A3.253,3.253,0,0,1,2.792,2.5,3.253,3.253,0,0,1,.146,1.268C-.258.708.223,0,1.021,0H4.562C5.36,0,5.841.708,5.437,1.268Z" transform="translate(7.208 17.5)" fill="#7853ff"/></g></g></svg>