<svg xmlns="http://www.w3.org/2000/svg" width="24" height="22.401" viewBox="0 0 24 22.401"><path d="M12,0l4.465,1.786L24,4.8V6.4H22.4a.744.744,0,0,1-.256.563.86.86,0,0,1-.606.238H2.463a.86.86,0,0,1-.606-.238A.748.748,0,0,1,1.6,6.4H0V4.8ZM3.2,8H6.4v9.6H8V8h3.2v9.6h1.6V8H16v9.6h1.6V8h3.2v9.6h.738a.86.86,0,0,1,.606.238.744.744,0,0,1,.256.563v.8H1.6v-.8a.744.744,0,0,1,.256-.563.86.86,0,0,1,.606-.238H3.2ZM23.138,20a.86.86,0,0,1,.606.238A.744.744,0,0,1,24,20.8v1.6H0V20.8a.744.744,0,0,1,.256-.563A.86.86,0,0,1,.862,20H23.137Z" fill="#fff"/></svg>