<?xml version="1.0" encoding="iso-8859-1"?>
<!-- Generator: Adobe Illustrator 16.0.0, SVG Export Plug-In . SVG Version: 6.00 Build 0)  -->
<!DOCTYPE svg PUBLIC "-//W3C//DTD SVG 1.1//EN" "http://www.w3.org/Graphics/SVG/1.1/DTD/svg11.dtd">
<svg version="1.1" id="Capa_1" xmlns="http://www.w3.org/2000/svg" xmlns:xlink="http://www.w3.org/1999/xlink" x="0px" y="0px"
	 width="509.457px" height="509.457px" viewBox="0 0 509.457 509.457" style="enable-background:new 0 0 509.457 509.457;"
	 xml:space="preserve">
<g>
	<path d="M80.499,57.338C80.499,25.67,106.169,0,137.836,0s57.338,25.67,57.338,57.338c0,31.667-25.67,57.337-57.338,57.337
		S80.499,89.005,80.499,57.338z M253.321,180.323c-1.761-20.373-17.292-36.863-37.529-39.841l-40.46-5.95l-25.255,57.929
		l-3.257-28.553c-0.088-0.904-0.85-1.591-1.754-1.591h-14.43c-0.911,0-1.68,0.701-1.754,1.612l-2.958,29.26l-25.568-58.657
		l-40.46,5.95c-20.23,2.978-35.768,19.468-37.529,39.841L9.929,324.197h39.698l6.616-97.037l8.82,66.164l-4.413,66.164h8.819
		v149.969H122.4l8.568-149.969h9.323l8.568,149.969h52.931V359.482h13.233l-4.413-66.164l8.819-66.164l6.616,97.035h39.698
		L253.321,180.323z M120.197,136.734c0.021,5.291,4.386,12.349,7.031,14.994s7.079,2.645,10.608,2.645s7.963,0,10.608-2.645
		c2.646-2.645,7.011-9.704,7.031-14.994c0.021-6.174-10.771-7.058-17.646-7.058C130.969,129.676,120.177,130.56,120.197,136.734z
		 M392.891,243.046c-4.29-12.818-16.666-27.234-37.896-32.137v-8.976c0-8.548-6.929-15.477-15.477-15.477
		s-15.477,6.929-15.477,15.477v9.438c-18.347,5.617-32.062,20.931-34.034,39.998c-2.176,20.993,11.309,45.458,46.342,52.795
		c14.647,3.061,22.828,10.281,21.896,19.299c-0.755,7.234-7.426,14.564-18.721,14.564c-13.613,0-21.876-6.467-24.018-12.885
		c-2.713-8.113-11.485-12.479-19.591-9.766c-8.105,2.707-12.484,11.479-9.771,19.592c4.291,12.816,16.667,27.232,37.903,32.137
		v8.975c0,8.549,6.929,15.479,15.477,15.479s15.477-6.93,15.477-15.479v-9.438c18.347-5.617,32.056-20.93,34.034-39.99
		c2.176-20.992-11.309-45.459-46.335-52.795c-14.647-3.061-22.828-10.283-21.896-19.299c0.748-7.235,7.419-14.565,18.721-14.565
		c14.545,0,22.032,6.942,24.018,12.886c2.72,8.112,11.499,12.479,19.591,9.764C391.231,259.924,395.604,251.158,392.891,243.046z
		 M336.328,123.501c-27.961,0-54.264,7.045-77.268,19.428c5.685,6.861,9.955,14.919,12.416,23.766
		c19.292-10.445,41.378-16.388,64.852-16.388c75.324,0,136.388,61.064,136.388,136.388c0,75.322-61.063,136.395-136.388,136.395
		c-39.297,0-74.609-16.715-99.497-43.311l0.007,0.104l-14.641,23.426c29.431,28.811,69.693,46.594,114.131,46.594
		c90.135,0,163.2-73.066,163.2-163.201C499.528,196.568,426.463,123.501,336.328,123.501z"/>
</g>
<g>
</g>
<g>
</g>
<g>
</g>
<g>
</g>
<g>
</g>
<g>
</g>
<g>
</g>
<g>
</g>
<g>
</g>
<g>
</g>
<g>
</g>
<g>
</g>
<g>
</g>
<g>
</g>
<g>
</g>
</svg>
